<mxfile host="app.diagrams.net" agent="Mozilla/5.0 (Macintosh; Intel Mac OS X 10_15_7) AppleWebKit/537.36 (KHTML, like Gecko) Chrome/132.0.0.0 Safari/537.36" version="26.0.6">
  <diagram name="Page-1" id="10a91c8b-09ff-31b1-d368-03940ed4cc9e">
    <mxGraphModel dx="1736" dy="1068" grid="1" gridSize="10" guides="1" tooltips="1" connect="1" arrows="1" fold="1" page="1" pageScale="1" pageWidth="1100" pageHeight="850" background="none" math="0" shadow="0">
      <root>
        <mxCell id="0" />
        <mxCell id="1" parent="0" />
        <mxCell id="62893188c0fa7362-1" value="is Support type?&lt;div&gt;(SUPPORT/AUDIT)&lt;/div&gt;" style="whiteSpace=wrap;html=1;rounded=1;shadow=1;labelBackgroundColor=none;strokeWidth=1;fontFamily=Verdana;fontSize=12;align=center;" parent="1" vertex="1">
          <mxGeometry x="487.5" y="300" width="120" height="60" as="geometry" />
        </mxCell>
        <mxCell id="62893188c0fa7362-3" value="has related support role and ENV?&lt;br&gt;(iamsmart.portal_role_member)" style="whiteSpace=wrap;html=1;rounded=1;shadow=1;labelBackgroundColor=none;strokeWidth=1;fontFamily=Verdana;fontSize=12;align=center;" parent="1" vertex="1">
          <mxGeometry x="42.5" y="400" width="205" height="95" as="geometry" />
        </mxCell>
        <mxCell id="62893188c0fa7362-4" value="Yes" style="rounded=0;html=1;labelBackgroundColor=none;startArrow=none;startFill=0;startSize=5;endArrow=none;endFill=0;endSize=5;jettySize=auto;orthogonalLoop=1;strokeWidth=1;fontFamily=Verdana;fontSize=12" parent="1" source="62893188c0fa7362-1" target="62893188c0fa7362-3" edge="1">
          <mxGeometry x="0.0006" y="-27" relative="1" as="geometry">
            <mxPoint as="offset" />
          </mxGeometry>
        </mxCell>
        <mxCell id="62893188c0fa7362-5" value="No" style="rounded=0;html=1;labelBackgroundColor=none;startArrow=none;startFill=0;startSize=5;endArrow=none;endFill=0;endSize=5;jettySize=auto;orthogonalLoop=1;strokeWidth=1;fontFamily=Verdana;fontSize=12;exitX=1;exitY=0.5;exitDx=0;exitDy=0;entryX=0.5;entryY=0;entryDx=0;entryDy=0;" parent="1" source="62893188c0fa7362-1" target="ggczQ8R7zVc78r3qwQfg-11" edge="1">
          <mxGeometry x="-0.359" y="-11" relative="1" as="geometry">
            <mxPoint as="offset" />
            <mxPoint x="1067.5" y="376.9565217391305" as="sourcePoint" />
            <mxPoint x="709.0000000000005" y="400" as="targetPoint" />
          </mxGeometry>
        </mxCell>
        <mxCell id="62893188c0fa7362-11" value="&lt;span&gt;Nothing&lt;/span&gt;" style="whiteSpace=wrap;html=1;rounded=0;shadow=1;labelBackgroundColor=none;strokeWidth=2;fontFamily=Verdana;fontSize=12;align=center;" parent="1" vertex="1">
          <mxGeometry x="390" y="417.5" width="120" height="60" as="geometry" />
        </mxCell>
        <mxCell id="62893188c0fa7362-16" value="Yes" style="rounded=0;html=1;labelBackgroundColor=none;startArrow=none;startFill=0;startSize=5;endArrow=none;endFill=0;endSize=5;jettySize=auto;orthogonalLoop=1;strokeWidth=1;fontFamily=Verdana;fontSize=12;entryX=0.5;entryY=0;entryDx=0;entryDy=0;" parent="1" source="62893188c0fa7362-3" target="ggczQ8R7zVc78r3qwQfg-3" edge="1">
          <mxGeometry x="-0.2614" y="-13" relative="1" as="geometry">
            <mxPoint as="offset" />
            <mxPoint x="177.5" y="585" as="targetPoint" />
          </mxGeometry>
        </mxCell>
        <mxCell id="62893188c0fa7362-17" value="No" style="rounded=0;html=1;labelBackgroundColor=none;startArrow=none;startFill=0;startSize=5;endArrow=none;endFill=0;endSize=5;jettySize=auto;orthogonalLoop=1;strokeWidth=1;fontFamily=Verdana;fontSize=12" parent="1" source="62893188c0fa7362-3" target="62893188c0fa7362-11" edge="1">
          <mxGeometry x="-0.1294" y="17" relative="1" as="geometry">
            <mxPoint as="offset" />
          </mxGeometry>
        </mxCell>
        <mxCell id="ggczQ8R7zVc78r3qwQfg-2" value="" style="endArrow=none;dashed=1;html=1;dashPattern=1 3;strokeWidth=2;rounded=0;" parent="1" edge="1">
          <mxGeometry width="50" height="50" relative="1" as="geometry">
            <mxPoint x="542.5" y="770" as="sourcePoint" />
            <mxPoint x="542.5" y="370" as="targetPoint" />
          </mxGeometry>
        </mxCell>
        <mxCell id="ggczQ8R7zVc78r3qwQfg-3" value="has user group (BD/NBD support)?&lt;br&gt;&lt;span&gt;(iamsmart.portal_user_group)&lt;/span&gt;" style="whiteSpace=wrap;html=1;rounded=1;shadow=1;labelBackgroundColor=none;strokeWidth=1;fontFamily=Verdana;fontSize=12;align=center;" parent="1" vertex="1">
          <mxGeometry x="40" y="560" width="210" height="120" as="geometry" />
        </mxCell>
        <mxCell id="ggczQ8R7zVc78r3qwQfg-6" value="Check &lt;br&gt;user group + role specific permission" style="whiteSpace=wrap;html=1;rounded=0;shadow=1;labelBackgroundColor=none;strokeWidth=2;fontFamily=Verdana;fontSize=12;align=center;" parent="1" vertex="1">
          <mxGeometry x="60" y="740" width="170" height="70" as="geometry" />
        </mxCell>
        <mxCell id="ggczQ8R7zVc78r3qwQfg-7" value="Yes" style="rounded=0;html=1;labelBackgroundColor=none;startArrow=none;startFill=0;startSize=5;endArrow=none;endFill=0;endSize=5;jettySize=auto;orthogonalLoop=1;strokeWidth=1;fontFamily=Verdana;fontSize=12;exitX=0.5;exitY=1;exitDx=0;exitDy=0;" parent="1" target="ggczQ8R7zVc78r3qwQfg-6" edge="1" source="ggczQ8R7zVc78r3qwQfg-3">
          <mxGeometry x="-0.2614" y="-13" relative="1" as="geometry">
            <mxPoint as="offset" />
            <mxPoint x="145" y="660" as="sourcePoint" />
          </mxGeometry>
        </mxCell>
        <mxCell id="ggczQ8R7zVc78r3qwQfg-8" value="&lt;span&gt;Nothing&lt;/span&gt;" style="whiteSpace=wrap;html=1;rounded=0;shadow=1;labelBackgroundColor=none;strokeWidth=2;fontFamily=Verdana;fontSize=12;align=center;" parent="1" vertex="1">
          <mxGeometry x="397.5" y="590" width="120" height="60" as="geometry" />
        </mxCell>
        <mxCell id="ggczQ8R7zVc78r3qwQfg-9" value="No" style="rounded=0;html=1;labelBackgroundColor=none;startArrow=none;startFill=0;startSize=5;endArrow=none;endFill=0;endSize=5;jettySize=auto;orthogonalLoop=1;strokeWidth=1;fontFamily=Verdana;fontSize=12;exitX=1;exitY=0.5;exitDx=0;exitDy=0;" parent="1" target="ggczQ8R7zVc78r3qwQfg-8" edge="1" source="ggczQ8R7zVc78r3qwQfg-3">
          <mxGeometry x="-0.1294" y="17" relative="1" as="geometry">
            <mxPoint as="offset" />
            <mxPoint x="247.5" y="610" as="sourcePoint" />
          </mxGeometry>
        </mxCell>
        <mxCell id="ggczQ8R7zVc78r3qwQfg-11" value="&lt;span&gt;has clientId user role?&lt;br&gt;(iamsmart.v_portal_permission_case_ref)&lt;/span&gt;" style="whiteSpace=wrap;html=1;rounded=1;shadow=1;labelBackgroundColor=none;strokeWidth=1;fontFamily=Verdana;fontSize=12;align=center;" parent="1" vertex="1">
          <mxGeometry x="595" y="410" width="290" height="70" as="geometry" />
        </mxCell>
        <mxCell id="ggczQ8R7zVc78r3qwQfg-12" value="&lt;span&gt;Nothing&lt;/span&gt;" style="whiteSpace=wrap;html=1;rounded=0;shadow=1;labelBackgroundColor=none;strokeWidth=2;fontFamily=Verdana;fontSize=12;align=center;" parent="1" vertex="1">
          <mxGeometry x="885" y="560" width="120" height="60" as="geometry" />
        </mxCell>
        <mxCell id="ggczQ8R7zVc78r3qwQfg-13" value="Yes" style="rounded=0;html=1;labelBackgroundColor=none;startArrow=none;startFill=0;startSize=5;endArrow=none;endFill=0;endSize=5;jettySize=auto;orthogonalLoop=1;strokeWidth=1;fontFamily=Verdana;fontSize=12;entryX=0.5;entryY=0;entryDx=0;entryDy=0;" parent="1" source="ggczQ8R7zVc78r3qwQfg-11" target="ggczQ8R7zVc78r3qwQfg-16" edge="1">
          <mxGeometry x="-0.2614" y="-13" relative="1" as="geometry">
            <mxPoint as="offset" />
            <mxPoint x="680" y="550" as="targetPoint" />
          </mxGeometry>
        </mxCell>
        <mxCell id="ggczQ8R7zVc78r3qwQfg-14" value="&lt;meta charset=&quot;utf-8&quot;&gt;&lt;span style=&quot;color: rgb(0, 0, 0); font-family: Verdana; font-size: 12px; font-style: normal; font-variant-ligatures: normal; font-variant-caps: normal; font-weight: 400; letter-spacing: normal; orphans: 2; text-align: center; text-indent: 0px; text-transform: none; widows: 2; word-spacing: 0px; -webkit-text-stroke-width: 0px; white-space: nowrap; background-color: rgb(251, 251, 251); text-decoration-thickness: initial; text-decoration-style: initial; text-decoration-color: initial; display: inline !important; float: none;&quot;&gt;No (ADOPTION USER/&lt;/span&gt;&lt;div style=&quot;forced-color-adjust: none; color: rgb(0, 0, 0); font-family: Verdana; font-size: 12px; font-style: normal; font-variant-ligatures: normal; font-variant-caps: normal; font-weight: 400; letter-spacing: normal; orphans: 2; text-align: center; text-indent: 0px; text-transform: none; widows: 2; word-spacing: 0px; -webkit-text-stroke-width: 0px; white-space: nowrap; background-color: rgb(251, 251, 251); text-decoration-thickness: initial; text-decoration-style: initial; text-decoration-color: initial;&quot;&gt;SBX USER)&lt;/div&gt;" style="rounded=0;html=1;labelBackgroundColor=none;startArrow=none;startFill=0;startSize=5;endArrow=none;endFill=0;endSize=5;jettySize=auto;orthogonalLoop=1;strokeWidth=1;fontFamily=Verdana;fontSize=12" parent="1" source="ggczQ8R7zVc78r3qwQfg-11" target="ggczQ8R7zVc78r3qwQfg-12" edge="1">
          <mxGeometry x="1" y="69" relative="1" as="geometry">
            <mxPoint x="7" y="6" as="offset" />
          </mxGeometry>
        </mxCell>
        <mxCell id="ggczQ8R7zVc78r3qwQfg-16" value="Check role specific permission" style="whiteSpace=wrap;html=1;rounded=0;shadow=1;labelBackgroundColor=none;strokeWidth=2;fontFamily=Verdana;fontSize=12;align=center;" parent="1" vertex="1">
          <mxGeometry x="607.5" y="560" width="170" height="70" as="geometry" />
        </mxCell>
        <mxCell id="ggczQ8R7zVc78r3qwQfg-20" value="Support Team" style="text;html=1;align=center;verticalAlign=middle;whiteSpace=wrap;rounded=0;fontSize=20;fontStyle=2" parent="1" vertex="1">
          <mxGeometry x="147.5" y="315" width="140" height="30" as="geometry" />
        </mxCell>
        <mxCell id="ggczQ8R7zVc78r3qwQfg-23" value="General User" style="text;html=1;align=center;verticalAlign=middle;whiteSpace=wrap;rounded=0;fontSize=20;fontStyle=2" parent="1" vertex="1">
          <mxGeometry x="827.5" y="315" width="140" height="30" as="geometry" />
        </mxCell>
        <mxCell id="ggczQ8R7zVc78r3qwQfg-24" value="is the creator of the resource?&lt;div&gt;(create_by)&lt;/div&gt;" style="whiteSpace=wrap;html=1;rounded=1;shadow=1;labelBackgroundColor=none;strokeWidth=1;fontFamily=Verdana;fontSize=12;align=center;" parent="1" vertex="1">
          <mxGeometry x="452.5" y="130" width="190" height="100" as="geometry" />
        </mxCell>
        <mxCell id="ggczQ8R7zVc78r3qwQfg-25" value="Yes" style="rounded=0;html=1;labelBackgroundColor=none;startArrow=none;startFill=0;startSize=5;endArrow=none;endFill=0;endSize=5;jettySize=auto;orthogonalLoop=1;strokeWidth=1;fontFamily=Verdana;fontSize=12;exitX=0;exitY=0.5;exitDx=0;exitDy=0;entryX=1;entryY=0.5;entryDx=0;entryDy=0;" parent="1" source="ggczQ8R7zVc78r3qwQfg-24" target="ggczQ8R7zVc78r3qwQfg-27" edge="1">
          <mxGeometry x="-0.359" y="-11" relative="1" as="geometry">
            <mxPoint as="offset" />
            <mxPoint x="442.5" y="220" as="targetPoint" />
          </mxGeometry>
        </mxCell>
        <mxCell id="ggczQ8R7zVc78r3qwQfg-26" value="No" style="rounded=0;html=1;labelBackgroundColor=none;startArrow=none;startFill=0;startSize=5;endArrow=none;endFill=0;endSize=5;jettySize=auto;orthogonalLoop=1;strokeWidth=1;fontFamily=Verdana;fontSize=12;exitX=0.5;exitY=1;exitDx=0;exitDy=0;entryX=0.5;entryY=0;entryDx=0;entryDy=0;" parent="1" source="ggczQ8R7zVc78r3qwQfg-24" target="62893188c0fa7362-1" edge="1">
          <mxGeometry x="0.1429" y="25" relative="1" as="geometry">
            <mxPoint as="offset" />
            <mxPoint x="602.5" y="370" as="sourcePoint" />
            <mxPoint x="692.5" y="430" as="targetPoint" />
          </mxGeometry>
        </mxCell>
        <mxCell id="ggczQ8R7zVc78r3qwQfg-27" value="&lt;span&gt;Allow access&lt;/span&gt;" style="whiteSpace=wrap;html=1;rounded=0;shadow=1;labelBackgroundColor=none;strokeWidth=2;fontFamily=Verdana;fontSize=12;align=center;" parent="1" vertex="1">
          <mxGeometry x="232.5" y="150" width="120" height="60" as="geometry" />
        </mxCell>
        <mxCell id="ggczQ8R7zVc78r3qwQfg-30" style="edgeStyle=orthogonalEdgeStyle;rounded=0;orthogonalLoop=1;jettySize=auto;html=1;exitX=0.5;exitY=1;exitDx=0;exitDy=0;entryX=0.5;entryY=0;entryDx=0;entryDy=0;" parent="1" source="ggczQ8R7zVc78r3qwQfg-28" target="ggczQ8R7zVc78r3qwQfg-24" edge="1">
          <mxGeometry relative="1" as="geometry" />
        </mxCell>
        <mxCell id="ggczQ8R7zVc78r3qwQfg-28" value="&lt;span&gt;Start checking permission&lt;/span&gt;" style="whiteSpace=wrap;html=1;rounded=0;shadow=1;labelBackgroundColor=none;strokeWidth=2;fontFamily=Verdana;fontSize=12;align=center;" parent="1" vertex="1">
          <mxGeometry x="487.5" y="10" width="120" height="60" as="geometry" />
        </mxCell>
      </root>
    </mxGraphModel>
  </diagram>
</mxfile>
